<svg xmlns="http://www.w3.org/2000/svg" viewBox="0 0 64 64" fill="none">
  <defs>
    <linearGradient id="bg" x1="6" y1="4" x2="58" y2="60" gradientUnits="userSpaceOnUse">
      <stop offset="0" stop-color="#3b82f6" />
      <stop offset="1" stop-color="#8b5cf6" />
    </linearGradient>
    <linearGradient id="plane" x1="24" y1="18" x2="40" y2="38" gradientUnits="userSpaceOnUse">
      <stop offset="0" stop-color="#ffffff" />
      <stop offset="1" stop-color="#e0f2fe" />
    </linearGradient>
  </defs>

  <rect x="2" y="2" width="60" height="60" rx="16" fill="url(#bg)" />

  <g transform="translate(32 30) rotate(-35)">
    <ellipse cx="0" cy="0" rx="2.3" ry="9" fill="url(#plane)" />
    <path d="M-1 -1 L-10 6 L-1 5 Z" fill="#ffffff" fill-opacity="0.95" />
    <path d="M1 -1 L10 6 L1 5 Z" fill="#ffffff" fill-opacity="0.95" />
    <path d="M-0.8 6.5 L-4.5 10 L-0.8 8 Z" fill="#ffffff" fill-opacity="0.75" />
    <path d="M0.8 6.5 L4.5 10 L0.8 8 Z" fill="#ffffff" fill-opacity="0.75" />
  </g>

  <circle cx="13" cy="15" r="1.8" fill="#ffffff" fill-opacity="0.58" />
  <circle cx="51" cy="15" r="1.8" fill="#ffffff" fill-opacity="0.58" />
  <circle cx="11" cy="25" r="1.2" fill="#ffffff" fill-opacity="0.35" />
  <circle cx="53" cy="25" r="1.2" fill="#ffffff" fill-opacity="0.35" />
  <line x1="13" y1="15" x2="11" y2="25" stroke="#ffffff" stroke-opacity="0.3" stroke-width="0.9" />
  <line x1="51" y1="15" x2="53" y2="25" stroke="#ffffff" stroke-opacity="0.3" stroke-width="0.9" />
</svg>